<svg width="294" height="70" viewBox="0 0 294 70" fill="none" xmlns="http://www.w3.org/2000/svg">
<path fill-rule="evenodd" clip-rule="evenodd" d="M39 70C45.8036 70 51.9791 66.9035 56.1659 62.2118L74.3785 41.756C77.5186 38.1903 78.67 33.7802 77.6233 29.4638C76.0533 22.9893 70.087 17.5469 62.8648 16.1394C58.05 15.2011 53.1305 16.2332 49.153 19.0483L39 26.1796L28.847 19.0483C24.8695 16.2332 19.95 15.2011 15.1352 16.1394C7.91295 17.5469 1.94676 22.9893 0.376704 29.4638C-0.669998 33.7802 0.481369 38.1903 3.62147 41.756L21.8341 62.2118C26.0209 66.9035 32.1964 70 39 70ZM39 60.6166C35.1272 60.6166 31.6731 58.9276 29.2657 56.2064L11.6811 36.5952C10.3204 35 9.79702 33.0295 10.3204 31.059C10.9484 28.1501 13.6698 25.7105 16.9146 25.1475C19.1127 24.6783 21.3107 25.1475 23.0901 26.3673L39 37.6273L54.9099 26.3673C56.6893 25.1475 58.8873 24.6783 61.0854 25.1475C64.3302 25.7105 67.0516 28.1501 67.6796 31.059C68.203 33.0295 67.6796 35 66.3189 36.5952L48.7343 56.2064C46.3269 58.9276 42.8728 60.6166 39 60.6166ZM39 17.1716C41.9308 17.1716 44.2335 15.1072 44.2335 12.4799V4.69168C44.2335 2.06433 41.9308 -2.11795e-06 39 -2.11795e-06C36.0692 -2.11795e-06 33.7665 2.06433 33.7665 4.69168V12.4799C33.7665 15.1072 36.0692 17.1716 39 17.1716Z" fill="#B57BFF"/>
<path d="M105.826 56.116H123.054L121.74 64H94.146L103.198 12.462H113.491L105.826 56.116ZM218.206 12.462C223.462 12.462 227.428 13.63 230.105 15.966C232.781 18.2533 234.12 21.3193 234.12 25.164C234.12 26.332 234.022 27.4027 233.828 28.376C233.146 32.2693 231.467 35.53 228.791 38.158C226.163 40.786 222.732 42.538 218.498 43.414L227.769 64H216.381L207.84 43.925H203.314L199.81 64H189.517L198.569 12.462H218.206ZM223.243 29.033C223.34 28.595 223.389 27.9623 223.389 27.135C223.389 23.1443 220.882 21.149 215.87 21.149H207.402L204.555 36.844H213.023C218.911 36.844 222.318 34.2403 223.243 29.033ZM275.015 53.634H254.429L248.954 64H238.077L265.963 13.046H277.789L287.717 64H276.767L275.015 53.634ZM273.701 45.823L269.978 23.996L258.517 45.823H273.701Z" fill="#111111"/>
<path d="M185.755 12.462L162.395 45.969L159.256 64H148.89L152.029 45.969L140.422 12.462H152.248L159.183 35.019L174.148 12.462H185.755Z" fill="#B57BFF"/>
</svg>
